<svg xmlns="http://www.w3.org/2000/svg" width="390.5" height="84.27" viewBox="0 0 390.5 84.27"><g fill="#FFF"><path d="M155.819 33.512c2.494 3.117 3.689 7.17 3.689 12.157 0 5.143-1.247 9.403-3.689 12.781-2.442 3.377-5.871 5.091-10.235 5.091-2.754 0-4.936-.571-6.599-1.663-.987-.623-2.078-1.766-3.221-3.377v4.156h-8.521v-44.68h8.676v15.898c1.091-1.559 2.338-2.701 3.637-3.533 1.559-.986 3.584-1.506 5.975-1.506 4.365 0 7.794 1.559 10.288 4.676zm-7.222 20.21c1.247-1.818 1.87-4.156 1.87-7.117 0-2.338-.312-4.313-.935-5.819-1.143-2.91-3.325-4.364-6.442-4.364-3.169 0-5.351 1.402-6.546 4.261-.624 1.506-.935 3.48-.935 5.87 0 2.857.624 5.195 1.922 7.066 1.247 1.87 3.169 2.805 5.767 2.805 2.286-.001 4.052-.936 5.299-2.702zM174.471 25.614h-8.78v-8.001h8.78v8.001zm-8.781 3.948h8.78v33.095h-8.78V29.562zM199.201 29.511c2.078.884 3.793 2.493 5.092 4.78v-4.78h8.469v31.381c0 4.26-.729 7.481-2.184 9.664-2.492 3.74-7.221 5.61-14.234 5.61-4.208 0-7.689-.831-10.339-2.493-2.649-1.663-4.156-4.156-4.416-7.43h9.404c.26.986.624 1.714 1.195 2.182.936.779 2.494 1.195 4.728 1.195 3.117 0 5.195-1.039 6.233-3.117.676-1.352 1.041-3.586 1.041-6.754v-2.131c-.832 1.402-1.715 2.494-2.65 3.17-1.715 1.299-3.949 1.974-6.702 1.974-4.26 0-7.637-1.507-10.183-4.468-2.546-2.962-3.793-7.014-3.793-12.158 0-4.935 1.247-9.04 3.689-12.417s5.923-5.039 10.391-5.039c1.609.103 3.012.363 4.259.831zm2.961 23.743c1.402-1.507 2.078-3.948 2.078-7.325 0-3.117-.676-5.507-1.974-7.17-1.299-1.663-3.065-2.442-5.3-2.442-3.013 0-5.091 1.403-6.286 4.261-.624 1.507-.883 3.377-.883 5.611 0 1.922.312 3.637.987 5.143 1.195 2.807 3.273 4.209 6.286 4.209 1.975-.001 3.69-.729 5.092-2.287zM220.346 30.29h5.352v4.312c1.092-1.455 2.287-2.599 3.586-3.429 1.869-1.195 4-1.818 6.494-1.818 3.688 0 6.857 1.402 9.404 4.26 2.598 2.806 3.844 6.857 3.844 12.105 0 7.065-1.871 12.157-5.559 15.171-2.338 1.922-5.092 2.909-8.209 2.909-2.441 0-4.52-.52-6.184-1.61-.986-.623-2.078-1.662-3.273-3.117v16.625h-5.455V30.29zM240.92 55.8c1.715-2.13 2.547-5.352 2.547-9.56 0-2.598-.363-4.832-1.143-6.702-1.404-3.585-4.002-5.403-7.795-5.403-3.791 0-6.389 1.87-7.793 5.663-.727 2.026-1.143 4.572-1.143 7.689 0 2.494.363 4.623 1.143 6.391 1.404 3.377 4.002 5.039 7.793 5.039 2.547.053 4.676-.986 6.391-3.117zM272.82 42.967c1.248-.155 2.078-.676 2.547-1.559.26-.467.363-1.195.363-2.078 0-1.87-.676-3.221-1.975-4.053-1.299-.831-3.221-1.246-5.662-1.246-2.857 0-4.885.779-6.08 2.338-.676.831-1.09 2.13-1.299 3.793h-5.092c.105-4.001 1.404-6.807 3.896-8.418 2.494-1.559 5.404-2.338 8.678-2.338 3.844 0 6.91.729 9.299 2.183 2.391 1.454 3.533 3.741 3.533 6.806v18.757c0 .57.104 1.039.363 1.35.209.364.729.52 1.455.52.26 0 .52 0 .832-.051.311-.053.623-.053.986-.156v4.053c-.83.26-1.506.415-1.922.467-.467.053-1.039.104-1.818.104-1.871 0-3.273-.675-4.104-2.025-.469-.728-.779-1.715-.936-3.014-1.092 1.455-2.703 2.701-4.781 3.793-2.078 1.091-4.363 1.61-6.908 1.61-3.014 0-5.508-.935-7.379-2.753-1.922-1.818-2.857-4.105-2.857-6.858 0-3.014.936-5.352 2.807-7.015 1.869-1.662 4.363-2.701 7.43-3.064l8.624-1.146zm-11.533 14.755c1.143.936 2.545 1.352 4.104 1.352 1.924 0 3.793-.468 5.611-1.352 3.014-1.454 4.572-3.896 4.572-7.273v-4.416c-.676.416-1.506.779-2.598 1.039-1.039.312-2.078.468-3.117.623l-3.324.416c-1.975.26-3.482.676-4.469 1.247-1.715.935-2.547 2.442-2.547 4.521.053 1.713.626 2.96 1.768 3.843zM289.967 30.135h5.195v4.623c1.559-1.922 3.168-3.273 4.883-4.104 1.715-.832 3.637-1.248 5.715-1.248 4.625 0 7.742 1.611 9.352 4.832.883 1.767 1.352 4.261 1.352 7.586V62.71h-5.559V42.136c0-1.974-.312-3.585-.885-4.78-.986-2.025-2.754-3.013-5.299-3.013-1.299 0-2.338.155-3.17.415-1.506.468-2.805 1.352-3.947 2.65-.936 1.091-1.508 2.182-1.768 3.324-.26 1.144-.414 2.754-.414 4.884v17.041h-5.455V30.135zM342.439 31.121c.988.623 2.078 1.662 3.273 3.17V17.873h5.248v44.784h-4.936v-4.52c-1.248 2.026-2.754 3.43-4.521 4.364-1.713.884-3.74 1.351-5.975 1.351-3.584 0-6.754-1.506-9.402-4.572-2.65-3.064-3.949-7.117-3.949-12.156 0-4.729 1.195-8.833 3.637-12.313 2.391-3.481 5.871-5.195 10.34-5.195 2.545-.054 4.623.466 6.285 1.505zM330.23 55.54c1.455 2.338 3.846 3.533 7.066 3.533 2.494 0 4.572-1.092 6.234-3.273 1.611-2.182 2.441-5.299 2.441-9.352 0-4.104-.83-7.17-2.494-9.145-1.662-1.974-3.74-2.961-6.182-2.961-2.754 0-4.988 1.039-6.65 3.169-1.715 2.131-2.547 5.195-2.547 9.3-.049 3.43.677 6.339 2.132 8.729zM376.627 42.967c1.246-.155 2.078-.676 2.545-1.559.26-.467.363-1.195.363-2.078 0-1.87-.676-3.221-1.975-4.053-1.299-.831-3.221-1.246-5.662-1.246-2.857 0-4.885.779-6.078 2.338-.676.831-1.092 2.13-1.299 3.793h-5.092c.104-4.001 1.402-6.807 3.896-8.418 2.494-1.559 5.402-2.338 8.676-2.338 3.846 0 6.91.729 9.301 2.183 2.389 1.454 3.533 3.741 3.533 6.806v18.757c0 .57.104 1.039.363 1.35.207.364.727.52 1.455.52.26 0 .52 0 .83-.051.312-.053.623-.053.988-.156v4.053c-.832.26-1.508.415-1.924.467-.467.053-1.039.104-1.818.104-1.869 0-3.271-.675-4.104-2.025-.467-.728-.779-1.715-.936-3.014-1.092 1.455-2.701 2.701-4.779 3.793-2.078 1.091-4.365 1.61-6.91 1.61-3.014 0-5.508-.935-7.377-2.753-1.924-1.818-2.857-4.105-2.857-6.858 0-3.014.934-5.352 2.805-7.015 1.871-1.662 4.363-2.701 7.43-3.064l8.626-1.146zm-11.535 14.755c1.143.936 2.547 1.352 4.105 1.352 1.922 0 3.793-.468 5.611-1.352 3.012-1.454 4.572-3.896 4.572-7.273v-4.416c-.676.416-1.508.779-2.6 1.039-1.039.312-2.078.468-3.117.623l-3.324.416c-1.975.26-3.48.676-4.469 1.247-1.715.935-2.545 2.442-2.545 4.521.052 1.713.624 2.96 1.767 3.843z"/></g><path fill="#FFF" d="M93.629 48.318c-1.455 4.987-2.857 8.157-6.079 10.651l-3.221 14.184-22.704 11.118H37.934L15.333 73.153l-4.156-14.912c-2.702-2.39-4-5.455-5.299-9.975l-1.299-4.521-1.559-.778-.987-7.377c-.104-2.442 1.403-4.572 3.637-5.248.52-.156 2.598-.779 6.442-1.195l.364-1.299-2.91-2.701c-5.403-5.871-5.04-15.066.779-20.471l.832-.779C13.878 1.352 17.411 0 21.1 0c4 0 7.897 1.663 10.651 4.625l2.234 2.389 15.846-3.168 14.911 3.168 2.234-2.389C69.729 1.663 73.626 0 77.627 0c3.688 0 7.222 1.403 9.923 3.896l.831.779c2.858 2.65 4.468 6.235 4.624 10.132s-1.247 7.585-3.896 10.442l-2.806 2.598.312 1.195c4.156.416 6.546 1.039 7.273 1.299 2.234.676 3.741 2.806 3.637 5.195l-.987 7.43-1.507.831-1.402 4.521z"/><path fill="#231F20" d="M92.746 34.135c-.052 0-3.013-.987-9.196-1.352l-1.767-6.182 4.416-4.053c4-4.26 3.741-10.963-.52-14.963l-.831-.779c-4.26-4-10.962-3.74-14.963.52l-3.793 4.053-16.313-3.482-17.197 3.429-3.741-4.053c-4-4.26-10.703-4.52-14.963-.52l-.832.779c-4.26 4.001-4.52 10.703-.52 14.964l4.417 4.052-1.767 6.234c-5.663.416-8.313 1.299-8.365 1.299-.571.156-.832.78-.779 1.248l.675 4.987.312.155c.987.52 1.195 1.299 2.494 5.819l.208.779c1.402 4.936 2.598 7.118 4.936 8.78l4 14.444 20.21 10.131H60.688l20.21-9.924 3.169-13.924c.052 0 .052-.052.104-.052 2.857-1.767 4.104-3.845 5.663-9.3l.208-.832c1.299-4.571 1.559-5.299 2.494-5.818l.312-.155.675-4.937v-.052c.054-.516-.206-1.139-.777-1.295zm-20.99 21.976h-.104c-4.987 0-8.053-1.714-9.144-2.493-1.766-1.195-3.896-3.793-4.728-5.715-.832-1.975-1.195-5.612-.728-7.066s2.702-2.39 4.312-2.909c3.325-1.144 9.04-1.663 9.092-1.663 1.767-.104 3.377-.155 4.78-.155s2.65.052 3.793.104c1.663.104 2.961.363 4 .676 1.506.467 2.182 1.091 2.649 1.61.572.624 1.351 2.493.572 8.001-.312 2.233-.935 4.001-1.922 5.403-.52.728-1.091 1.351-1.818 1.818-.728.52-1.611.936-2.65 1.299-2.077.727-4.831 1.09-8.104 1.09zM24.789 17.977l24.99-5.455 24.107 5.508 4.832 14.65h-2.285c-3.533.053-7.118.363-10.651.832-1.767.26-3.585.57-5.352.935a97.54 97.54 0 0 0-4.052.987c-2.546.623-4.208 1.039-6.598 1.039-2.39 0-4.053-.416-6.599-1.039a95.961 95.961 0 0 0-4.052-.987c-1.974-.415-4-.728-6.027-.987a96.367 96.367 0 0 0-10.858-.779h-2.235l4.78-14.704zm-.52 18.132c1.455 0 3.065.052 4.78.155.052 0 5.819.52 9.144 1.663 1.61.571 3.844 1.455 4.312 2.909.468 1.507.104 5.144-.728 7.066-.831 1.922-2.961 4.52-4.728 5.715-1.091.727-4.208 2.493-9.144 2.493h-.104c-3.793 0-6.806-.52-8.988-1.454a18.335 18.335 0 0 1-1.767-.936c-1.039-.728-1.87-1.715-2.494-2.961-.624-1.195-.987-2.598-1.247-4.261-.779-5.559.052-7.43.572-8.001.364-.364.831-.884 1.818-1.299.987-.416 2.286-.728 3.949-.884 1.3-.153 2.859-.205 4.625-.205zm52.786 31.64L59.65 76.79H39.907L21.62 67.802l-2.442-9.82c2.39.572 5.299.936 8.312.936 1.351 0 2.65-.052 3.897-.207 7.118-.832 10.703-5.3 11.326-6.235 1.403-1.974 3.013-5.455 4.416-8.624.468-1.092 2.39-1.144 2.65-1.144h.208c.52.052 2.026.208 2.442 1.144 1.351 3.169 2.961 6.65 4.416 8.624.624.884 4.208 5.352 11.326 6.235 1.247.155 2.546.207 3.897.207 2.598 0 5.195-.26 7.377-.727l-2.39 9.558z"/><path fill="#231F20" d="M50.766 66.295c2.39-.208 8.157-1.091 7.689-4.624-.208-1.143-1.039-3.637-8.625-2.026-7.585-1.61-8.469.884-8.625 2.026-.52 3.533 5.299 4.416 7.637 4.624v3.272h-7.637l1.351 2.547h14.496l1.351-2.547h-7.638v-3.272z"/></svg>