<?xml version="1.0" encoding="utf-8"?>
<!-- Generator: Adobe Illustrator 16.0.0, SVG Export Plug-In . SVG Version: 6.00 Build 0)  -->
<!DOCTYPE svg PUBLIC "-//W3C//DTD SVG 1.1//EN" "http://www.w3.org/Graphics/SVG/1.1/DTD/svg11.dtd">
<svg version="1.1" id="Layer_1" xmlns="http://www.w3.org/2000/svg" xmlns:xlink="http://www.w3.org/1999/xlink" x="0px" y="0px"
	 width="390.5px" height="84.27px" viewBox="0 0 390.5 84.27" enable-background="new 0 0 390.5 84.27" xml:space="preserve">
<g>
	<g>
		<g>
			<g>
				<path fill="#FFFFFF" d="M155.819,33.512c2.494,3.117,3.689,7.17,3.689,12.157c0,5.143-1.247,9.403-3.689,12.781
					c-2.442,3.377-5.871,5.091-10.235,5.091c-2.754,0-4.936-0.571-6.599-1.663c-0.987-0.623-2.078-1.766-3.221-3.377v4.156h-8.521
					V17.977h8.676v15.898c1.091-1.559,2.338-2.701,3.637-3.533c1.559-0.986,3.584-1.506,5.975-1.506
					C149.896,28.836,153.325,30.395,155.819,33.512z M148.597,53.722c1.247-1.818,1.87-4.156,1.87-7.117
					c0-2.338-0.312-4.313-0.935-5.819c-1.143-2.91-3.325-4.364-6.442-4.364c-3.169,0-5.351,1.402-6.546,4.261
					c-0.624,1.506-0.935,3.48-0.935,5.87c0,2.857,0.624,5.195,1.922,7.066c1.247,1.87,3.169,2.805,5.767,2.805
					C145.584,56.423,147.35,55.488,148.597,53.722z"/>
				<path fill="#FFFFFF" d="M174.471,25.614h-8.78v-8.001h8.78V25.614z M165.69,29.562h8.78v33.095h-8.78V29.562z"/>
				<path fill="#FFFFFF" d="M199.201,29.511c2.078,0.884,3.793,2.493,5.092,4.78v-4.78h8.469v31.381c0,4.26-0.729,7.481-2.184,9.664
					c-2.492,3.74-7.221,5.61-14.234,5.61c-4.208,0-7.689-0.831-10.339-2.493c-2.649-1.663-4.156-4.156-4.416-7.43h9.404
					c0.26,0.986,0.624,1.714,1.195,2.182c0.936,0.779,2.494,1.195,4.728,1.195c3.117,0,5.195-1.039,6.233-3.117
					c0.676-1.352,1.041-3.586,1.041-6.754v-2.131c-0.832,1.402-1.715,2.494-2.65,3.17c-1.715,1.299-3.949,1.974-6.702,1.974
					c-4.26,0-7.637-1.507-10.183-4.468c-2.546-2.962-3.793-7.014-3.793-12.158c0-4.935,1.247-9.04,3.689-12.417
					s5.923-5.039,10.391-5.039C196.551,28.783,197.954,29.043,199.201,29.511z M202.162,53.254c1.402-1.507,2.078-3.948,2.078-7.325
					c0-3.117-0.676-5.507-1.974-7.17c-1.299-1.663-3.065-2.442-5.3-2.442c-3.013,0-5.091,1.403-6.286,4.261
					c-0.624,1.507-0.883,3.377-0.883,5.611c0,1.922,0.312,3.637,0.987,5.143c1.195,2.807,3.273,4.209,6.286,4.209
					C199.045,55.54,200.76,54.812,202.162,53.254z"/>
				<path fill="#FFFFFF" d="M220.346,30.29h5.352v4.312c1.092-1.455,2.287-2.599,3.586-3.429c1.869-1.195,4-1.818,6.494-1.818
					c3.688,0,6.857,1.402,9.404,4.26c2.598,2.806,3.844,6.857,3.844,12.105c0,7.065-1.871,12.157-5.559,15.171
					c-2.338,1.922-5.092,2.909-8.209,2.909c-2.441,0-4.52-0.52-6.184-1.61c-0.986-0.623-2.078-1.662-3.273-3.117v16.625h-5.455
					V30.29z M240.92,55.8c1.715-2.13,2.547-5.352,2.547-9.56c0-2.598-0.363-4.832-1.143-6.702c-1.404-3.585-4.002-5.403-7.795-5.403
					c-3.791,0-6.389,1.87-7.793,5.663c-0.727,2.026-1.143,4.572-1.143,7.689c0,2.494,0.363,4.623,1.143,6.391
					c1.404,3.377,4.002,5.039,7.793,5.039C237.076,58.97,239.205,57.931,240.92,55.8z"/>
				<path fill="#FFFFFF" d="M272.82,42.967c1.248-0.155,2.078-0.676,2.547-1.559c0.26-0.467,0.363-1.195,0.363-2.078
					c0-1.87-0.676-3.221-1.975-4.053c-1.299-0.831-3.221-1.246-5.662-1.246c-2.857,0-4.885,0.779-6.08,2.338
					c-0.676,0.831-1.09,2.13-1.299,3.793h-5.092c0.105-4.001,1.404-6.807,3.896-8.418c2.494-1.559,5.404-2.338,8.678-2.338
					c3.844,0,6.91,0.729,9.299,2.183c2.391,1.454,3.533,3.741,3.533,6.806v18.757c0,0.57,0.104,1.039,0.363,1.35
					c0.209,0.364,0.729,0.52,1.455,0.52c0.26,0,0.52,0,0.832-0.051c0.311-0.053,0.623-0.053,0.986-0.156v4.053
					c-0.83,0.26-1.506,0.415-1.922,0.467c-0.467,0.053-1.039,0.104-1.818,0.104c-1.871,0-3.273-0.675-4.104-2.025
					c-0.469-0.728-0.779-1.715-0.936-3.014c-1.092,1.455-2.703,2.701-4.781,3.793c-2.078,1.091-4.363,1.61-6.908,1.61
					c-3.014,0-5.508-0.935-7.379-2.753c-1.922-1.818-2.857-4.105-2.857-6.858c0-3.014,0.936-5.352,2.807-7.015
					c1.869-1.662,4.363-2.701,7.43-3.064L272.82,42.967z M261.287,57.722c1.143,0.936,2.545,1.352,4.104,1.352
					c1.924,0,3.793-0.468,5.611-1.352c3.014-1.454,4.572-3.896,4.572-7.273v-4.416c-0.676,0.416-1.506,0.779-2.598,1.039
					c-1.039,0.312-2.078,0.468-3.117,0.623l-3.324,0.416c-1.975,0.26-3.482,0.676-4.469,1.247c-1.715,0.935-2.547,2.442-2.547,4.521
					C259.572,55.592,260.145,56.839,261.287,57.722z"/>
				<path fill="#FFFFFF" d="M289.967,30.135h5.195v4.623c1.559-1.922,3.168-3.273,4.883-4.104c1.715-0.832,3.637-1.248,5.715-1.248
					c4.625,0,7.742,1.611,9.352,4.832c0.883,1.767,1.352,4.261,1.352,7.586V62.71h-5.559V42.136c0-1.974-0.312-3.585-0.885-4.78
					c-0.986-2.025-2.754-3.013-5.299-3.013c-1.299,0-2.338,0.155-3.17,0.415c-1.506,0.468-2.805,1.352-3.947,2.65
					c-0.936,1.091-1.508,2.182-1.768,3.324c-0.26,1.144-0.414,2.754-0.414,4.884v17.041h-5.455V30.135z"/>
				<path fill="#FFFFFF" d="M342.439,31.121c0.988,0.623,2.078,1.662,3.273,3.17V17.873h5.248v44.784h-4.936v-4.52
					c-1.248,2.026-2.754,3.43-4.521,4.364c-1.713,0.884-3.74,1.351-5.975,1.351c-3.584,0-6.754-1.506-9.402-4.572
					c-2.65-3.064-3.949-7.117-3.949-12.156c0-4.729,1.195-8.833,3.637-12.313c2.391-3.481,5.871-5.195,10.34-5.195
					C338.699,29.562,340.777,30.082,342.439,31.121z M330.23,55.54c1.455,2.338,3.846,3.533,7.066,3.533
					c2.494,0,4.572-1.092,6.234-3.273c1.611-2.182,2.441-5.299,2.441-9.352c0-4.104-0.83-7.17-2.494-9.145
					c-1.662-1.974-3.74-2.961-6.182-2.961c-2.754,0-4.988,1.039-6.65,3.169c-1.715,2.131-2.547,5.195-2.547,9.3
					C328.049,50.241,328.775,53.15,330.23,55.54z"/>
				<path fill="#FFFFFF" d="M376.627,42.967c1.246-0.155,2.078-0.676,2.545-1.559c0.26-0.467,0.363-1.195,0.363-2.078
					c0-1.87-0.676-3.221-1.975-4.053c-1.299-0.831-3.221-1.246-5.662-1.246c-2.857,0-4.885,0.779-6.078,2.338
					c-0.676,0.831-1.092,2.13-1.299,3.793h-5.092c0.104-4.001,1.402-6.807,3.896-8.418c2.494-1.559,5.402-2.338,8.676-2.338
					c3.846,0,6.91,0.729,9.301,2.183c2.389,1.454,3.533,3.741,3.533,6.806v18.757c0,0.57,0.104,1.039,0.363,1.35
					c0.207,0.364,0.727,0.52,1.455,0.52c0.26,0,0.52,0,0.83-0.051c0.312-0.053,0.623-0.053,0.988-0.156v4.053
					c-0.832,0.26-1.508,0.415-1.924,0.467c-0.467,0.053-1.039,0.104-1.818,0.104c-1.869,0-3.271-0.675-4.104-2.025
					c-0.467-0.728-0.779-1.715-0.936-3.014c-1.092,1.455-2.701,2.701-4.779,3.793c-2.078,1.091-4.365,1.61-6.91,1.61
					c-3.014,0-5.508-0.935-7.377-2.753c-1.924-1.818-2.857-4.105-2.857-6.858c0-3.014,0.934-5.352,2.805-7.015
					c1.871-1.662,4.363-2.701,7.43-3.064L376.627,42.967z M365.092,57.722c1.143,0.936,2.547,1.352,4.105,1.352
					c1.922,0,3.793-0.468,5.611-1.352c3.012-1.454,4.572-3.896,4.572-7.273v-4.416c-0.676,0.416-1.508,0.779-2.6,1.039
					c-1.039,0.312-2.078,0.468-3.117,0.623l-3.324,0.416c-1.975,0.26-3.48,0.676-4.469,1.247c-1.715,0.935-2.545,2.442-2.545,4.521
					C363.377,55.592,363.949,56.839,365.092,57.722z"/>
			</g>
		</g>
	</g>
	<g>
		<g>
			<g>
				<path fill="#FFFFFF" d="M93.629,48.318c-1.455,4.987-2.857,8.157-6.079,10.651l-3.221,14.184L61.625,84.271H37.934
					L15.333,73.153l-4.156-14.912c-2.702-2.39-4-5.455-5.299-9.975l-1.299-4.521L3.02,42.967L2.033,35.59
					c-0.104-2.442,1.403-4.572,3.637-5.248c0.52-0.156,2.598-0.779,6.442-1.195l0.364-1.299l-2.91-2.701
					c-5.403-5.871-5.04-15.066,0.779-20.471l0.832-0.779C13.878,1.352,17.411,0,21.1,0c4,0,7.897,1.663,10.651,4.625l2.234,2.389
					l15.846-3.168l14.911,3.168l2.234-2.389C69.729,1.663,73.626,0,77.627,0c3.688,0,7.222,1.403,9.923,3.896l0.831,0.779
					c2.858,2.65,4.468,6.235,4.624,10.132s-1.247,7.585-3.896,10.442l-2.806,2.598l0.312,1.195c4.156,0.416,6.546,1.039,7.273,1.299
					c2.234,0.676,3.741,2.806,3.637,5.195l-0.987,7.43l-1.507,0.831L93.629,48.318z"/>
				<path fill="#231F20" d="M92.746,34.135c-0.052,0-3.013-0.987-9.196-1.352l-1.767-6.182l4.416-4.053
					c4-4.26,3.741-10.963-0.52-14.963l-0.831-0.779c-4.26-4-10.962-3.74-14.963,0.52l-3.793,4.053L49.779,7.897l-17.197,3.429
					l-3.741-4.053c-4-4.26-10.703-4.52-14.963-0.52l-0.832,0.779c-4.26,4.001-4.52,10.703-0.52,14.964l4.417,4.052l-1.767,6.234
					c-5.663,0.416-8.313,1.299-8.365,1.299c-0.571,0.156-0.832,0.78-0.779,1.248l0.675,4.987l0.312,0.155
					c0.987,0.52,1.195,1.299,2.494,5.819l0.208,0.779c1.402,4.936,2.598,7.118,4.936,8.78l4,14.444l20.21,10.131h10.911h10.91
					l20.21-9.924l3.169-13.924c0.052,0,0.052-0.052,0.104-0.052c2.857-1.767,4.104-3.845,5.663-9.3l0.208-0.832
					c1.299-4.571,1.559-5.299,2.494-5.818l0.312-0.155l0.675-4.937v-0.052C93.577,34.914,93.317,34.291,92.746,34.135z
					 M71.756,56.111h-0.104c-4.987,0-8.053-1.714-9.144-2.493c-1.766-1.195-3.896-3.793-4.728-5.715
					c-0.832-1.975-1.195-5.612-0.728-7.066s2.702-2.39,4.312-2.909c3.325-1.144,9.04-1.663,9.092-1.663
					c1.767-0.104,3.377-0.155,4.78-0.155s2.65,0.052,3.793,0.104c1.663,0.104,2.961,0.363,4,0.676
					c1.506,0.467,2.182,1.091,2.649,1.61c0.572,0.624,1.351,2.493,0.572,8.001c-0.312,2.233-0.935,4.001-1.922,5.403
					c-0.52,0.728-1.091,1.351-1.818,1.818c-0.728,0.52-1.611,0.936-2.65,1.299C77.783,55.748,75.029,56.111,71.756,56.111z
					 M24.789,17.977l24.99-5.455l24.107,5.508l4.832,14.65c-0.26,0-0.52,0-0.779,0c-0.52,0-0.987,0-1.506,0
					c-3.533,0.053-7.118,0.363-10.651,0.832c-1.767,0.26-3.585,0.57-5.352,0.935c-1.61,0.364-2.909,0.676-4.052,0.987
					c-2.546,0.623-4.208,1.039-6.598,1.039c-2.39,0-4.053-0.416-6.599-1.039c-1.143-0.312-2.442-0.623-4.052-0.987
					c-1.974-0.415-4-0.728-6.027-0.987c-3.637-0.467-7.273-0.727-10.858-0.779c-0.208,0-0.416,0-0.572,0c-0.571,0-1.143,0-1.663,0
					L24.789,17.977z M24.269,36.109c1.455,0,3.065,0.052,4.78,0.155c0.052,0,5.819,0.52,9.144,1.663
					c1.61,0.571,3.844,1.455,4.312,2.909c0.468,1.507,0.104,5.144-0.728,7.066c-0.831,1.922-2.961,4.52-4.728,5.715
					c-1.091,0.727-4.208,2.493-9.144,2.493h-0.104c-3.793,0-6.806-0.52-8.988-1.454c-0.675-0.312-1.247-0.624-1.767-0.936
					c-1.039-0.728-1.87-1.715-2.494-2.961c-0.624-1.195-0.987-2.598-1.247-4.261c-0.779-5.559,0.052-7.43,0.572-8.001
					c0.364-0.364,0.831-0.884,1.818-1.299c0.987-0.416,2.286-0.728,3.949-0.884C20.944,36.161,22.503,36.109,24.269,36.109z
					 M77.055,67.749L59.65,76.79h-9.871h-9.872L21.62,67.802l-2.442-9.82c2.39,0.572,5.299,0.936,8.312,0.936
					c1.351,0,2.65-0.052,3.897-0.207c7.118-0.832,10.703-5.3,11.326-6.235c1.403-1.974,3.013-5.455,4.416-8.624
					c0.468-1.092,2.39-1.144,2.65-1.144h0.208c0.52,0.052,2.026,0.208,2.442,1.144c1.351,3.169,2.961,6.65,4.416,8.624
					c0.624,0.884,4.208,5.352,11.326,6.235c1.247,0.155,2.546,0.207,3.897,0.207c2.598,0,5.195-0.26,7.377-0.727L77.055,67.749z"/>
			</g>
			<path fill="#231F20" d="M50.766,66.295c2.39-0.208,8.157-1.091,7.689-4.624c-0.208-1.143-1.039-3.637-8.625-2.026
				c-7.585-1.61-8.469,0.884-8.625,2.026c-0.52,3.533,5.299,4.416,7.637,4.624v3.272h-7.637l1.351,2.547h14.496l1.351-2.547h-7.638
				V66.295z"/>
		</g>
	</g>
</g>
</svg>
